<svg width="100" height="20" viewBox="0 0 100 20" fill="none" xmlns="http://www.w3.org/2000/svg">
<g id="Group 15.1">
<path id="Rectangle" fill-rule="evenodd" clip-rule="evenodd" d="M0 0H90C95.5229 0 100 4.47715 100 10C100 15.5228 95.5229 20 90 20H0V0Z" fill="#008FBE"/>
<path id="&#239;&#139;&#182;" d="M15 12.6758V6.82422L17.9258 9.75L15 12.6758Z" fill="white"/>
<path id="Check In" d="M29.117 12.196C29.007 12.075 28.798 12.075 28.677 12.196C28.149 12.669 27.401 12.977 26.675 12.977C25.179 12.977 23.958 11.811 23.958 10.062C23.958 8.302 25.179 7.158 26.675 7.158C27.401 7.158 28.149 7.477 28.677 7.95C28.798 8.06 29.007 8.071 29.117 7.939L29.491 7.543C29.59 7.411 29.579 7.224 29.436 7.092C28.721 6.41 27.753 6.003 26.675 6.003C24.277 6.003 22.704 7.675 22.704 10.062C22.704 12.449 24.277 14.132 26.675 14.132C27.753 14.132 28.721 13.725 29.447 13.043C29.579 12.922 29.59 12.713 29.491 12.603L29.117 12.196ZM37.9193 6.443C37.9193 6.267 37.7873 6.135 37.6003 6.135H36.9843C36.7973 6.135 36.6653 6.267 36.6653 6.443V9.38H32.4853V6.443C32.4853 6.267 32.3533 6.135 32.1663 6.135H31.5503C31.3633 6.135 31.2313 6.267 31.2313 6.443V13.692C31.2313 13.868 31.3633 14 31.5503 14H32.1663C32.3533 14 32.4853 13.868 32.4853 13.692V10.535H36.6653V13.692C36.6653 13.868 36.7973 14 36.9843 14H37.6003C37.7873 14 37.9193 13.868 37.9193 13.692V6.443ZM40.4019 6.135C40.2149 6.135 40.0829 6.267 40.0829 6.443V13.692C40.0829 13.868 40.2149 14 40.4019 14H45.4839C45.6599 14 45.7919 13.868 45.7919 13.692V13.164C45.7919 12.988 45.6599 12.845 45.4839 12.845H41.3369V10.557H44.9779C45.1429 10.557 45.2859 10.414 45.2859 10.238V9.71C45.2859 9.545 45.1429 9.402 44.9779 9.402H41.3369V7.29H45.4839C45.6599 7.29 45.7919 7.147 45.7919 6.971V6.443C45.7919 6.267 45.6599 6.135 45.4839 6.135H40.4019ZM53.3299 12.196C53.2199 12.075 53.0109 12.075 52.8899 12.196C52.3619 12.669 51.6139 12.977 50.8879 12.977C49.3919 12.977 48.1709 11.811 48.1709 10.062C48.1709 8.302 49.3919 7.158 50.8879 7.158C51.6139 7.158 52.3619 7.477 52.8899 7.95C53.0109 8.06 53.2199 8.071 53.3299 7.939L53.7039 7.543C53.8029 7.411 53.7919 7.224 53.6489 7.092C52.9339 6.41 51.9659 6.003 50.8879 6.003C48.4899 6.003 46.9169 7.675 46.9169 10.062C46.9169 12.449 48.4899 14.132 50.8879 14.132C51.9659 14.132 52.9339 13.725 53.6599 13.043C53.7919 12.922 53.8029 12.713 53.7039 12.603L53.3299 12.196ZM61.9452 13.516L58.2932 9.787L61.7802 6.586C61.9672 6.41 61.8572 6.135 61.6592 6.135H60.8122C60.6362 6.135 60.4052 6.256 60.2622 6.399L56.6982 9.688V6.454C56.6982 6.267 56.5662 6.135 56.3902 6.135H55.7632C55.5872 6.135 55.4552 6.267 55.4552 6.454V13.692C55.4552 13.857 55.5872 14 55.7632 14H56.3902C56.5662 14 56.6982 13.857 56.6982 13.692V11.239L57.4132 10.601L60.4272 13.736C60.5592 13.879 60.8012 14 60.9662 14H61.8022C62.0002 14 62.1432 13.736 61.9452 13.516ZM74.4626 10.095C74.4626 7.873 72.8786 6.003 70.5136 6.003C68.1376 6.003 66.5536 7.873 66.5536 10.095C66.5536 12.515 68.3796 14.132 70.5136 14.132C72.6366 14.132 74.4626 12.515 74.4626 10.095ZM70.5136 12.977C69.0066 12.977 67.8296 11.767 67.8296 10.095C67.8296 8.335 69.0066 7.158 70.5136 7.158C72.0096 7.158 73.1866 8.335 73.1866 10.095C73.1866 11.767 72.0096 12.977 70.5136 12.977ZM82.7641 6.135H82.1371C81.9611 6.135 81.8291 6.267 81.8291 6.454V10.469C81.8291 11.943 81.0151 12.977 79.6401 12.977C78.2541 12.977 77.4291 11.943 77.4291 10.469V6.454C77.4291 6.267 77.2971 6.135 77.1211 6.135H76.4941C76.3181 6.135 76.1861 6.267 76.1861 6.454V10.579C76.1861 12.702 77.5721 14.132 79.6401 14.132C81.6641 14.132 83.0721 12.713 83.0721 10.579V6.443C83.0721 6.267 82.9401 6.135 82.7641 6.135ZM90.5578 6.135H84.5628C84.3868 6.135 84.2548 6.267 84.2548 6.454V6.982C84.2548 7.158 84.3868 7.29 84.5628 7.29H86.9388V13.692C86.9388 13.857 87.0708 14 87.2468 14H87.8738C88.0608 14 88.1928 13.857 88.1928 13.692V7.29H90.5578C90.7228 7.29 90.8658 7.158 90.8658 6.982V6.454C90.8658 6.267 90.7228 6.135 90.5578 6.135Z" fill="white"/>
</g>
</svg>
