<svg width="113" height="71" viewBox="0 0 103 61" fill="none" xmlns="http://www.w3.org/2000/svg">
<g id="Group 2.3">
<path id="Combined Shape" fill-rule="evenodd" clip-rule="evenodd" d="M0 48.0801L0.088829 48.1687C14.9107 64.629 38.1838 65.228 55.3359 48.1687L103 0H0V48.0801Z" fill="url(#paint0_radial)"/>
<path id="Combined Shape_2" fill-rule="evenodd" clip-rule="evenodd" d="M37.4929 29.8641L40.6646 26.6919C41.5612 25.7954 42.8157 26.1116 42.8157 27.409V37.4126C42.8157 38.2472 42.0447 39 41.1492 39H18.5939C17.7397 39 17 38.3793 17 37.4126V14.8811C17 13.6941 17.7624 13.2393 18.5939 13.2393H20.1167C20.1767 13.2393 20.2256 13.1903 20.2256 13.1303L20.2251 10.7513C20.2251 10.3363 20.562 10 20.9765 10H22.6995C23.1144 10 23.4508 10.3363 23.4508 10.7513V13.1303C23.4508 13.1903 23.4992 13.2393 23.5592 13.2393H36.2434C36.3034 13.2393 36.3523 13.1903 36.3523 13.1303V10.7513C36.3523 10.3363 36.6887 10 37.1036 10H38.8261C39.2411 10 39.5775 10.3363 39.5775 10.7513V13.1303C39.5775 13.1903 39.6259 13.2393 39.6859 13.2393H41.1492C42.0503 13.2393 42.8026 14.0042 42.8026 14.8811V15.8406C42.8026 16.3197 42.7189 16.7231 42.2883 17.1532L31.2479 28.1033C31.1102 28.2395 31.1097 28.4618 31.2469 28.599L32.6305 29.9826C33.9395 31.2916 36.1088 31.2478 37.4929 29.8641ZM27.5568 35.1748C28.8598 36.4773 30.9721 36.4773 32.2745 35.1748L34.9505 32.4988C35.0761 32.3732 34.9606 32.163 34.7877 32.2008C33.7071 32.4378 32.6048 32.1922 31.56 31.1474C30.7033 30.2912 24.786 24.2726 24.786 24.2726C24.491 23.9771 24.012 23.9771 23.717 24.2726L20.7975 27.1922C20.4596 27.5295 20.4596 28.0771 20.7975 28.4149L27.5568 35.1748Z" fill="white"/>
</g>
<defs>
<radialGradient id="paint0_radial" cx="0" cy="0" r="1" gradientUnits="userSpaceOnUse" gradientTransform="translate(-20.106 39.6633) rotate(-16.3292) scale(130.071 88.0762)">
<stop stop-color="#FEF3A2"/>
<stop offset="0.479831" stop-color="#26CAD3"/>
<stop offset="1" stop-color="#008FBE"/>
</radialGradient>
</defs>
</svg>
