<svg width="11" height="11" viewBox="0 0 11 11" fill="none" xmlns="http://www.w3.org/2000/svg">
<path fill-rule="evenodd" clip-rule="evenodd" d="M10.4552 7.70121C10.5752 7.99433 10.6523 8.30638 10.6559 8.62241C10.6612 8.9309 10.6025 9.23732 10.4834 9.52385C10.2983 9.9679 9.97674 10.3473 9.5615 10.6114C9.09202 10.9104 8.51244 11.0435 7.95307 10.9875C7.43803 10.9407 6.94835 10.7443 6.51889 10.473C6.0742 10.1944 5.68898 9.83897 5.32902 9.46649C4.94192 9.86531 4.52617 10.2463 4.04006 10.5327C3.6043 10.792 3.10767 10.9697 2.59263 10.9959C2.20704 11.0171 1.82163 10.9516 1.46702 10.8046C1.01342 10.617 0.624249 10.292 0.364991 9.88876C0.0642151 9.42455 -0.0593079 8.85717 0.0268295 8.31657C0.0733268 7.9964 0.19685 7.69309 0.33343 7.39979C0.662762 6.69577 1.00515 5.99743 1.35045 5.30027C1.92973 4.1353 2.52734 2.97881 3.14309 1.83121C3.16614 1.78839 3.18912 1.74553 3.21211 1.70265C3.31539 1.51001 3.41875 1.31721 3.52878 1.12791C3.65916 0.904783 3.80964 0.68914 4.00409 0.512278C4.33173 0.205633 4.77744 0.0216455 5.23406 0H5.43827C5.88182 0.0265158 6.31401 0.202296 6.63611 0.497126C6.83798 0.676784 6.99391 0.897748 7.12786 1.12728C7.23475 1.31182 7.33552 1.49953 7.43629 1.68722C7.464 1.73885 7.49172 1.79047 7.51956 1.84203C8.43721 3.55252 9.31425 5.2828 10.15 7.03155C10.1648 7.06287 10.1797 7.09418 10.1946 7.12549C10.2851 7.31586 10.3756 7.50634 10.4552 7.70121ZM4.96296 7.94043C5.08056 8.10183 5.19848 8.26367 5.33137 8.41389C5.74402 7.90287 6.12558 7.35831 6.36662 6.75079C6.49427 6.4234 6.57741 6.07085 6.5356 5.71983C6.50367 5.45576 6.37676 5.1988 6.16428 5.02501C5.74449 4.67679 5.08414 4.64576 4.62086 4.93284C4.42641 5.0518 4.27292 5.23181 4.19308 5.43961C4.10384 5.66121 4.09699 5.90472 4.12564 6.13813C4.1649 6.43233 4.2655 6.71562 4.39081 6.98546C4.54374 7.31069 4.73386 7.6185 4.94296 7.91297C4.94963 7.92212 4.95629 7.93127 4.96296 7.94043ZM9.06637 10.1339C9.45573 9.92709 9.75331 9.56868 9.87712 9.1584C9.96842 8.85807 9.96551 8.53303 9.87749 8.23207C9.81589 8.02339 9.72325 7.8254 9.6308 7.62783C9.61513 7.59434 9.59946 7.56085 9.58395 7.52732C8.87593 6.03876 8.1374 4.56375 7.3688 3.10316L7.34775 3.06324C7.08546 2.56568 6.82297 2.06778 6.54998 1.57543C6.42598 1.35321 6.2879 1.13026 6.0835 0.967285C5.87656 0.800344 5.60763 0.704652 5.3371 0.707719C5.07385 0.703087 4.81691 0.785318 4.60921 0.940679C4.41711 1.08083 4.28119 1.27682 4.16434 1.47641C4.04606 1.68109 3.93459 1.88941 3.82313 2.0977C3.79968 2.14152 3.77623 2.18534 3.75272 2.22913C2.84578 3.92161 1.97859 5.63345 1.15178 7.36336C1.12896 7.41208 1.10583 7.46071 1.0827 7.50936C0.985121 7.71457 0.887411 7.92005 0.811554 8.13367C0.698739 8.45303 0.677698 8.80504 0.772571 9.13108C0.896658 9.5749 1.22561 9.961 1.65405 10.166C2.01983 10.3437 2.45014 10.3864 2.84898 10.3005C3.34232 10.198 3.7778 9.9288 4.15842 9.61954C4.4039 9.41806 4.6333 9.19919 4.8447 8.96477C4.37588 8.40911 3.95139 7.81007 3.66217 7.14826C3.46763 6.69532 3.33903 6.20379 3.38309 5.71108C3.41174 5.36899 3.53526 5.03168 3.75197 4.75733C3.99817 4.44265 4.35746 4.21565 4.75086 4.10877C5.16802 3.99459 5.62257 4.00713 6.03146 4.14737C6.46919 4.29528 6.85104 4.60103 7.06417 4.99903C7.22696 5.29693 7.29252 5.63767 7.28266 5.97227C7.26519 6.49961 7.08117 7.00774 6.83901 7.47673C6.56153 8.01227 6.19829 8.50218 5.81269 8.97045C6.05692 9.22776 6.31185 9.4774 6.59497 9.69584C6.98019 9.99383 7.42478 10.2463 7.92029 10.3203C8.30936 10.3827 8.72126 10.3192 9.06637 10.1339Z" fill="#FF5A5F"/>
</svg>
