<svg width="10" height="10" viewBox="0 0 10 10" fill="none" xmlns="http://www.w3.org/2000/svg">
<path d="M5.05433 6.65761L5.29889 6.14131L4.48367 1.90218C4.23911 0.706524 4.53802 0.190219 5.46194 0.0271759H4.59237C4.3478 0.163045 3.80433 0.516306 4.10324 1.92935L5.05433 6.65761Z" fill="#8EC089"/>
<path d="M4.56523 7.69022L4.8098 7.17392L3.72284 1.90218C3.50545 0.869567 3.61415 0.353263 3.94023 0.0543499V0.0271759H3.34241C3.15219 0.407611 3.09784 0.788046 3.31523 1.82065L4.56523 7.69022Z" fill="#E85F24"/>
<path d="M4.07608 8.69565L4.32064 8.17935L2.96195 1.7663C2.71738 0.76087 2.77173 0.326087 2.88043 0H2.36412C2.36412 0.543478 2.41847 1.08696 2.58151 1.60326L4.07608 8.69565Z" fill="#1C4695"/>
<path d="M1.875 0.0271759H1.27718V0.0543499C1.54892 0.380437 1.63044 0.788046 1.84783 1.68478L3.47826 9.23913H3.8587L2.22826 1.65761C2.06522 1.11413 1.95652 0.570654 1.875 0.0271759Z" fill="#245ABC"/>
<path d="M0.652174 0.0271759H0V0.0543499C0.597826 0.298915 0.896739 0.733698 1.1413 1.82065L2.74457 9.26631H3.125L1.49457 1.73913C1.19565 0.434785 0.896739 0.190219 0.652174 0.0271759Z" fill="#318EEE"/>
<path d="M8.99457 0.0271759C8.20653 0.461959 7.74457 1.30435 6.79349 3.36957H6.82066C7.93479 1.27718 8.55979 0.461959 10 0.0271759H8.99457Z" fill="#1C4695"/>
<path d="M6.73912 3.34239C7.69021 1.19565 7.9076 0.597828 8.28803 0.0543499V0.0271759H7.55434V0.0543499C7.63586 0.896741 7.33695 1.68478 6.73912 3.34239Z" fill="#E85F24"/>
<path d="M6.68477 3.28804C7.28259 1.38587 7.47281 0.516304 6.95651 0H6.24998V0.0271739C7.0652 0.326087 7.22825 1.1413 6.68477 3.28804Z" fill="#8EC089"/>
</svg>
